# xmcd
#
# Track frame offsets: 
#        150
#        13674
#        24869
#        34761
#        44036
#        56505
#        68018
#        79613
#        92006
#        100485
#        113108
#        124298
#        135823
#        149620
#        165079
#        176699
#        190648
#        201266
#        214915
#        228279
#        239341
#        251209
#        263334
#        276529
#        288551
#        300352
#        313366
#
# Disc length: 4369 seconds
#
# Revision: 1
# Processed by: cddbd v1.5.2PL0 Copyright (c) Steve Scherf et al.
# Submitted via: ExactAudioCopyFreeDBPlugin 1.0
#
DISCID=80110f1b
DTITLE=Tammi Terrell - Come On and See Me:  The Complete Solo Collecti
DTITLE=on
DYEAR=2010
DGENRE=Rhythm and Blues
TTITLE0=If You See Bill  (as Tammy Montgomery)
TTITLE1=It's Mine  (as Tammy Montgomery)
TTITLE2=Voice of Experience  (as Tammy Montgomery)
TTITLE3=I Wancha' to Be Sure  (as Tammy Montgomery)
TTITLE4=Sinner's Devotion  (as Tammy Montgomery)
TTITLE5=Make the Night Just a Little Longer  (as Tammy Montgomery)
TTITLE6=Big John  (as Tammy Montgomery)
TTITLE7=I Cried  (as Tammy Montgomery)
TTITLE8=If You Don't Think  (as Tammy Montgomery)
TTITLE9=If I Would Marry You (stereo version)  (as Tammy Montgomery)
TTITLE10=This Time Tomorrow (stereo version)  (as Tammy Montgomery)
TTITLE11=I've Got Nothing to Say But Goodbye  (as Tammy Montgomery)
TTITLE12=I Can't Hold It in Any More  (as Tammy Montgomery)
TTITLE13=If I Would Marry You (duet with Jimmy Radcliffe)  (as Tammy M
TTITLE13=ontgomery)
TTITLE14=I Can't Believe You Love Me
TTITLE15=That's What Boys Are Made For
TTITLE16=Come On and See Me
TTITLE17=What a Good Man He Is
TTITLE18=Tears at the End of a Love Affair
TTITLE19=This Old Heart of Mine (Is Weak for You)
TTITLE20=He's the One I Love
TTITLE21=Can't Stop Now (Love is Calling)
TTITLE22=Just Too Much to Hope For
TTITLE23=Hold Me Oh My Darling
TTITLE24=I Can't Go on Without You
TTITLE25=Baby Don'tcha Worry (stereo version)
TTITLE26=There are Things (stereo version)
EXTD=
EXTT0=
EXTT1=
EXTT2=
EXTT3=
EXTT4=
EXTT5=
EXTT6=
EXTT7=
EXTT8=
EXTT9=
EXTT10=
EXTT11=
EXTT12=
EXTT13=
EXTT14=
EXTT15=
EXTT16=
EXTT17=
EXTT18=
EXTT19=
EXTT20=
EXTT21=
EXTT22=
EXTT23=
EXTT24=
EXTT25=
EXTT26=
PLAYORDER=
